<svg xmlns="http://www.w3.org/2000/svg" width="750" height="453"
     viewBox="0 0 750 453"
     font-family='-apple-system, BlinkMacSystemFont, "Segoe UI", Roboto, Helvetica, Arial, sans-serif, "Apple Color Emoji", "Segoe UI Emoji", "Segoe UI Symbol"' font-size="14">

  <rect x="98.1875" y="14" width="55.2188" height="44" rx="8" fill="#fdeaf2" stroke="#d81b60" stroke-width="1.5"/>
  <text x="125.797" y="40.9" text-anchor="middle" fill="#1a1a1a">user</text>

  <rect x="210.109" y="14" width="67.125" height="44" rx="8" fill="#e8f2fd" stroke="#1565c0" stroke-width="1.5"/>
  <text x="243.672" y="40.9" text-anchor="middle" fill="#1a1a1a">toggle</text>

  <rect x="339.242" y="14" width="66.8906" height="44" rx="8" fill="#e8f2fd" stroke="#1565c0" stroke-width="1.5"/>
  <text x="372.688" y="40.9" text-anchor="middle" fill="#1a1a1a">model</text>

  <rect x="444.133" y="14" width="56.2344" height="44" rx="8" fill="#e8f2fd" stroke="#1565c0" stroke-width="1.5"/>
  <text x="472.25" y="40.9" text-anchor="middle" fill="#1a1a1a">view</text>

  <rect x="550.719" y="14" width="101.094" height="44" rx="8" fill="#ffffff" stroke="#43a047" stroke-width="1.5"/>
  <text x="601.266" y="40.9" text-anchor="middle" fill="#1a1a1a">on_tracking</text>

  <line x1="125.797" y1="96" x2="243.672" y2="96" stroke="#d81b60" stroke-width="1.4"/>
  <line x1="243.672" y1="134" x2="472.25" y2="134" stroke="#1565c0" stroke-width="1.4"/>
  <line x1="472.25" y1="172" x2="601.266" y2="172" stroke="#43a047" stroke-width="1.4"/>
  <path d="M 243.67 210 L 271.67 210 Q 279.67 210 279.67 218 L 279.67 222 Q 279.67 230 271.67 230 L 243.67 230" fill="none" stroke="#1565c0" stroke-width="1.4"/>
  <line x1="125.797" y1="268" x2="243.672" y2="268" stroke="#d81b60" stroke-width="1.4"/>
  <line x1="243.672" y1="306" x2="372.688" y2="306" stroke="#1565c0" stroke-width="1.4"/>
  <line x1="372.688" y1="344" x2="243.672" y2="344" stroke="#1565c0" stroke-width="1.4"/>
  <line x1="243.672" y1="382" x2="472.25" y2="382" stroke="#1565c0" stroke-width="1.4"/>
  <line x1="472.25" y1="420" x2="601.266" y2="420" stroke="#43a047" stroke-width="1.4"/>
  <line x1="125.797" y1="58" x2="125.797" y2="439" stroke="#5d5d5d" stroke-width="1.4" stroke-dasharray="5,3"/>
  <line x1="243.672" y1="58" x2="243.672" y2="439" stroke="#5d5d5d" stroke-width="1.4" stroke-dasharray="5,3"/>
  <line x1="372.688" y1="58" x2="372.688" y2="439" stroke="#5d5d5d" stroke-width="1.4" stroke-dasharray="5,3"/>
  <line x1="472.25" y1="58" x2="472.25" y2="439" stroke="#5d5d5d" stroke-width="1.4" stroke-dasharray="5,3"/>
  <line x1="601.266" y1="58" x2="601.266" y2="439" stroke="#5d5d5d" stroke-width="1.4" stroke-dasharray="5,3"/>

  <text x="184.734" y="89" text-anchor="middle" fill="#1a1a1a">mouse down</text>
  <text x="308.18" y="127" text-anchor="middle" fill="#1a1a1a">begin_tracking</text>
  <text x="536.758" y="165" text-anchor="middle" fill="#1a1a1a">begin_tracking</text>
  <text x="287.672" y="224.9" fill="#1a1a1a">value(true)</text>
  <text x="184.734" y="261" text-anchor="middle" fill="#1a1a1a">mouse up</text>
  <text x="308.18" y="299" text-anchor="middle" fill="#1a1a1a">on_click(true)</text>
  <text x="308.18" y="337" text-anchor="middle" fill="#1a1a1a">value(true)</text>
  <text x="308.18" y="375" text-anchor="middle" fill="#1a1a1a">end_tracking</text>
  <text x="536.758" y="413" text-anchor="middle" fill="#1a1a1a">end_tracking</text>

  <polygon points="243.672,96 234.672,100 234.672,92" fill="#d81b60"/>
  <polygon points="472.25,134 463.25,138 463.25,130" fill="#1565c0"/>
  <polygon points="601.266,172 592.266,176 592.266,168" fill="#43a047"/>
  <polygon points="243.672,230 252.672,226 252.672,234" fill="#1565c0"/>
  <polygon points="243.672,268 234.672,272 234.672,264" fill="#d81b60"/>
  <polygon points="372.688,306 363.688,310 363.688,302" fill="#1565c0"/>
  <polygon points="243.672,344 252.672,340 252.672,348" fill="#1565c0"/>
  <polygon points="472.25,382 463.25,386 463.25,378" fill="#1565c0"/>
  <polygon points="601.266,420 592.266,424 592.266,416" fill="#43a047"/>
</svg>
