<?xml version="1.0" encoding="UTF-8"?>
<svg id="b" data-name="Layer 2" xmlns="http://www.w3.org/2000/svg" viewBox="0 0 216.5 99.5">
  <defs>
    <style>
      .d, .e {
        fill: none;
        stroke: #be1e2d;
      }

      .d, .e, .f {
        stroke-miterlimit: 10;
      }

      .g {
        letter-spacing: 0em;
      }

      .h {
        font-family: MyriadPro-Regular, 'Myriad Pro';
        font-size: 12px;
      }

      .h, .i {
        fill: #be1e2d;
      }

      .e {
        stroke-dasharray: 0 0 7 7;
      }

      .f {
        fill: #e6e7e8;
        stroke: #414042;
      }

      .j {
        fill: #414042;
      }

      .j, .i {
        stroke-width: 0px;
      }
    </style>
  </defs>
  <g id="c" data-name="Layer 1">
    <g>
      <line class="d" x1=".5" y1="72.5" x2=".5" y2="75.5"/>
      <line class="e" x1=".5" y1="82.5" x2=".5" y2="93"/>
      <line class="d" x1=".5" y1="96.5" x2=".5" y2="99.5"/>
    </g>
    <g>
      <line class="d" x1="207.5" y1="72.5" x2="207.5" y2="75.5"/>
      <line class="e" x1="207.5" y1="82.5" x2="207.5" y2="93"/>
      <line class="d" x1="207.5" y1="96.5" x2="207.5" y2="99.5"/>
    </g>
    <path class="j" d="M207.5,73h-6v-1h5.5v-5.5h1v6h-.5v.5ZM195.5,73h-6v-1h6v1ZM183.5,73h-6v-1h6v1ZM171.5,73h-6v-1h6v1ZM159.5,73h-6v-1h6v1ZM147.5,73h-6v-1h6v1ZM135.5,73h-6v-1h6v1ZM123.5,73h-6v-1h6v1ZM111.5,73h-6v-1h6v1ZM99.5,73h-6v-1h6v1ZM87.5,73h-6v-1h6v1ZM75.5,73h-6v-1h6v1ZM63.5,73h-6v-1h6v1ZM51.5,73h-6v-1h6v1ZM39.5,73h-6v-1h6v1ZM27.5,73h-6v-1h6v1ZM15.5,73h-6v-1h6v1ZM3.5,73H0v-3.5h1v2.5h2.5v1ZM1,63.5H0v-6h1v6ZM208,60.5h-1v-6h1v6ZM1,51.5H0v-6h1v6ZM208,48.5h-1v-6h1v6ZM1,39.5H0v-6h1v6ZM208,36.5h-1v-6h1v6ZM1,27.5H0v-6h1v6ZM208,24.5h-1v-6h1v6ZM1,15.5H0v-6h1v6ZM208,12.5h-1v-6h1v6ZM1,3.5H0V0h3.5v1H1v2.5ZM207.5,1h-6V0h6v1ZM195.5,1h-6V0h6v1ZM183.5,1h-6V0h6v1ZM171.5,1h-6V0h6v1ZM159.5,1h-6V0h6v1ZM147.5,1h-6V0h6v1ZM135.5,1h-6V0h6v1ZM123.5,1h-6V0h6v1ZM111.5,1h-6V0h6v1ZM99.5,1h-6V0h6v1ZM87.5,1h-6V0h6v1ZM75.5,1h-6V0h6v1ZM63.5,1h-6V0h6v1ZM51.5,1h-6V0h6v1ZM39.5,1h-6V0h6v1ZM27.5,1h-6V0h6v1ZM15.5,1h-6V0h6v1Z"/>
    <rect class="f" x="45.5" y=".5" width="72" height="72"/>
    <text class="h" transform="translate(69.14 94.52)"><tspan x="0" y="0">ali</tspan><tspan class="g" x="11.42" y="0">g</tspan><tspan x="18.06" y="0">n</tspan></text>
    <g>
      <line class="d" x1="45.5" y1="90.5" x2="9.36" y2="90.5"/>
      <polygon class="i" points="11.34 87.59 .5 90.5 11.34 93.41 11.34 87.59"/>
    </g>
    <g>
      <line class="d" x1="117.5" y1="90.5" x2="198.64" y2="90.5"/>
      <polygon class="i" points="196.66 93.41 207.5 90.5 196.66 87.59 196.66 93.41"/>
    </g>
  </g>
</svg>