<?xml version="1.0" encoding="UTF-8"?>
<svg id="b" data-name="Layer 2" xmlns="http://www.w3.org/2000/svg" viewBox="0 0 225.5 84.5">
  <defs>
    <style>
      .d {
        stroke: #414042;
      }

      .d, .e, .f, .g, .h {
        fill: none;
        stroke-miterlimit: 10;
      }

      .e {
        stroke: #be1e2d;
      }

      .i {
        font-family: MyriadPro-Regular, 'Myriad Pro';
        font-size: 12px;
      }

      .i, .j {
        fill: #be1e2d;
      }

      .f {
        stroke: #1c75bc;
      }

      .g {
        stroke-dasharray: 0 0 6 6;
      }

      .g, .h {
        stroke: #a7a9ac;
      }

      .k {
        letter-spacing: 0em;
      }

      .j, .l {
        stroke-width: 0px;
      }

      .l {
        fill: #1c75bc;
      }
    </style>
  </defs>
  <g id="c" data-name="Layer 1">
    <rect class="d" x=".5" y=".5" width="144" height="72"/>
    <text class="i" transform="translate(150.63 30.02)"><tspan x="0" y="0">width (max)</tspan></text>
    <g>
      <line class="h" x1=".5" y1="33.09" x2="3.5" y2="33.09"/>
      <line class="g" x1="9.5" y1="33.09" x2="138.5" y2="33.09"/>
      <line class="h" x1="141.5" y1="33.09" x2="144.5" y2="33.09"/>
    </g>
    <g>
      <line class="f" x1="90.5" y1="45.36" x2="90.5" y2="63.64"/>
      <polygon class="l" points="87.59 47.34 90.5 36.5 93.41 47.34 87.59 47.34"/>
      <polygon class="l" points="87.59 61.66 90.5 72.5 93.41 61.66 87.59 61.66"/>
    </g>
    <g>
      <line class="h" x1="45.5" y1=".5" x2="45.5" y2="3.5"/>
      <line class="g" x1="45.5" y1="9.5" x2="45.5" y2="66.5"/>
      <line class="h" x1="45.5" y1="69.5" x2="45.5" y2="72.5"/>
    </g>
    <g>
      <line class="f" x1="54.36" y1="18.5" x2="135.64" y2="18.5"/>
      <polygon class="l" points="56.34 21.41 45.5 18.5 56.34 15.59 56.34 21.41"/>
      <polygon class="l" points="133.66 21.41 144.5 18.5 133.66 15.59 133.66 21.41"/>
    </g>
    <text class="i" transform="translate(153.26 72.02)"><tspan x="0" y="0">heig</tspan><tspan class="k" x="22.19" y="0">h</tspan><tspan x="28.8" y="0">t (max)</tspan></text>
    <g>
      <path class="e" d="M170.5,58.5c.46,1.21-22.54-31.38-50.37,5.99"/>
      <polygon class="j" points="118.88 61.24 115.17 71.83 123.68 64.52 118.88 61.24"/>
    </g>
    <g>
      <path class="e" d="M182.5,18.17c-5.72-7.36-14.88-16.08-30.01-10.79"/>
      <polygon class="j" points="153.13 4.05 144.5 11.22 155.56 9.32 153.13 4.05"/>
    </g>
    <line class="e" x1="144.5" y1=".5" x2="144.5" y2="72.5"/>
    <line class="e" x1=".5" y1="72.5" x2="144.5" y2="72.5"/>
  </g>
</svg>