<?xml version="1.0" encoding="UTF-8"?>
<svg id="b" data-name="Layer 2" xmlns="http://www.w3.org/2000/svg" viewBox="0 0 225.5 93.02">
  <defs>
    <style>
      .d {
        stroke: #414042;
      }

      .d, .e, .f, .g {
        fill: none;
        stroke-miterlimit: 10;
      }

      .e, .f {
        stroke: #be1e2d;
      }

      .f {
        stroke-dasharray: 0 0 6 6;
      }

      .h {
        font-family: MyriadPro-Regular, 'Myriad Pro';
        font-size: 12px;
      }

      .h, .i {
        fill: #be1e2d;
      }

      .g {
        stroke: #1c75bc;
      }

      .j {
        letter-spacing: 0em;
      }

      .i, .k {
        stroke-width: 0px;
      }

      .k {
        fill: #1c75bc;
      }
    </style>
  </defs>
  <g id="c" data-name="Layer 1">
    <rect class="d" x=".5" y=".5" width="144" height="72"/>
    <text class="h" transform="translate(16.56 90.02)"><tspan x="0" y="0">width (min)</tspan></text>
    <g>
      <line class="e" x1=".5" y1="33.09" x2="3.5" y2="33.09"/>
      <line class="f" x1="9.5" y1="33.09" x2="138.5" y2="33.09"/>
      <line class="e" x1="141.5" y1="33.09" x2="144.5" y2="33.09"/>
    </g>
    <g>
      <line class="g" x1="90.5" y1="63.64" x2="90.5" y2="45.36"/>
      <polygon class="k" points="93.41 61.66 90.5 72.5 87.59 61.66 93.41 61.66"/>
      <polygon class="k" points="93.41 47.34 90.5 36.5 87.59 47.34 93.41 47.34"/>
    </g>
    <g>
      <line class="e" x1="45.5" y1=".5" x2="45.5" y2="3.5"/>
      <line class="f" x1="45.5" y1="9.5" x2="45.5" y2="66.5"/>
      <line class="e" x1="45.5" y1="69.5" x2="45.5" y2="72.5"/>
    </g>
    <g>
      <line class="g" x1="135.64" y1="18.5" x2="54.36" y2="18.5"/>
      <polygon class="k" points="133.66 15.59 144.5 18.5 133.66 21.41 133.66 15.59"/>
      <polygon class="k" points="56.34 15.59 45.5 18.5 56.34 21.41 56.34 15.59"/>
    </g>
    <text class="h" transform="translate(154.2 36.02)"><tspan x="0" y="0">heig</tspan><tspan class="j" x="22.19" y="0">h</tspan><tspan x="28.8" y="0">t (min)</tspan></text>
    <g>
      <path class="e" d="M23.83,80.17s-3.01-26.56,12.92-33.19"/>
      <polygon class="i" points="35.42 50.43 45.5 45.5 34.3 44.73 35.42 50.43"/>
    </g>
    <g>
      <path class="e" d="M172.5,41.5c.45,1.17-24.72,23.86-45.1.83"/>
      <polygon class="i" points="130.98 42.11 122.17 35.17 126.33 45.59 130.98 42.11"/>
    </g>
  </g>
</svg>