<svg xmlns="http://www.w3.org/2000/svg" width="569" height="198" role="img" aria-label="Elements build">
<title>Elements build</title>
<rect width="569" height="198" rx="4" fill="#444"/>
<g fill="#fff" font-family="Verdana,DejaVu Sans,Geneva,sans-serif" text-anchor="middle">
<text x="284.5" y="25.0" font-size="18" font-weight="bold">Elements build</text>
<rect x="0" y="36" width="236" height="26" fill="#555"/>
<rect x="236" y="36" width="48" height="26" fill="#4c1"/>
<text x="226" y="53" font-size="12" text-anchor="end">Cairo (Ubuntu GCC)</text>
<text x="260.0" y="53" font-size="12">pass</text>
<rect x="0" y="63" width="236" height="26" fill="#555"/>
<rect x="236" y="63" width="48" height="26" fill="#4c1"/>
<text x="226" y="80" font-size="12" text-anchor="end">Cairo (Windows MSVC)</text>
<text x="260.0" y="80" font-size="12">pass</text>
<rect x="0" y="90" width="236" height="26" fill="#555"/>
<rect x="236" y="90" width="48" height="26" fill="#4c1"/>
<text x="226" y="107" font-size="12" text-anchor="end">Cairo (macOS Clang)</text>
<text x="260.0" y="107" font-size="12">pass</text>
<rect x="0" y="117" width="236" height="26" fill="#555"/>
<rect x="236" y="117" width="48" height="26" fill="#4c1"/>
<text x="226" y="134" font-size="12" text-anchor="end">Direct2D (Windows MSVC x64)</text>
<text x="260.0" y="134" font-size="12">pass</text>
<rect x="0" y="144" width="236" height="26" fill="#555"/>
<rect x="236" y="144" width="48" height="26" fill="#4c1"/>
<text x="226" y="161" font-size="12" text-anchor="end">Quartz2D (macOS Clang)</text>
<text x="260.0" y="161" font-size="12">pass</text>
<rect x="0" y="171" width="236" height="26" fill="#555"/>
<rect x="236" y="171" width="48" height="26" fill="#4c1"/>
<text x="226" y="188" font-size="12" text-anchor="end">Skia (Ubuntu GCC arm64)</text>
<text x="260.0" y="188" font-size="12">pass</text>
<rect x="285" y="36" width="236" height="26" fill="#555"/>
<rect x="521" y="36" width="48" height="26" fill="#4c1"/>
<text x="511" y="53" font-size="12" text-anchor="end">Skia (Ubuntu GCC x64)</text>
<text x="545.0" y="53" font-size="12">pass</text>
<rect x="285" y="63" width="236" height="26" fill="#555"/>
<rect x="521" y="63" width="48" height="26" fill="#4c1"/>
<text x="511" y="80" font-size="12" text-anchor="end">Skia (Windows MSVC x64)</text>
<text x="545.0" y="80" font-size="12">pass</text>
<rect x="285" y="90" width="236" height="26" fill="#555"/>
<rect x="521" y="90" width="48" height="26" fill="#4c1"/>
<text x="511" y="107" font-size="12" text-anchor="end">Skia (macOS Clang arm64)</text>
<text x="545.0" y="107" font-size="12">pass</text>
<rect x="285" y="117" width="236" height="26" fill="#555"/>
<rect x="521" y="117" width="48" height="26" fill="#4c1"/>
<text x="511" y="134" font-size="12" text-anchor="end">Tests (headless, Ubuntu GCC)</text>
<text x="545.0" y="134" font-size="12">pass</text>
<rect x="285" y="144" width="236" height="26" fill="#555"/>
<rect x="521" y="144" width="48" height="26" fill="#4c1"/>
<text x="511" y="161" font-size="12" text-anchor="end">Tests (headless, Windows MSVC)</text>
<text x="545.0" y="161" font-size="12">pass</text>
<rect x="285" y="171" width="236" height="26" fill="#555"/>
<rect x="521" y="171" width="48" height="26" fill="#4c1"/>
<text x="511" y="188" font-size="12" text-anchor="end">Tests (headless, macOS Clang)</text>
<text x="545.0" y="188" font-size="12">pass</text>
</g>
</svg>
