<?xml version="1.0" encoding="UTF-8"?>
<svg id="b" data-name="Layer 2" xmlns="http://www.w3.org/2000/svg" viewBox="0 0 221.55 184.18">
  <defs>
    <style>
      .d, .e, .f, .g, .h, .i, .j, .k, .l, .m, .n, .o, .p {
        stroke: #414042;
        stroke-miterlimit: 10;
      }

      .d, .e, .f, .g, .h, .i, .j, .l, .m, .n, .o, .p {
        fill: none;
      }

      .e {
        stroke-dasharray: 0 0 3.97 3.97;
      }

      .f {
        stroke-dasharray: 0 0 4 4;
      }

      .g {
        stroke-dasharray: 0 0 3.93 3.93;
      }

      .h {
        stroke-dasharray: 0 0 3.99 3.99;
      }

      .i {
        stroke-dasharray: 0 0 4.06 4.06;
      }

      .j {
        stroke-dasharray: 0 0 3.93 3.93;
      }

      .k {
        fill: #e6e7e8;
      }

      .l {
        stroke-dasharray: 0 0 4.05 4.05;
      }

      .m {
        stroke-dasharray: 0 0 4.08 4.08;
      }

      .n {
        stroke-dasharray: 0 0 3.94 3.94;
      }

      .o {
        stroke-dasharray: 0 0 4.07 4.07;
      }

      .p {
        stroke-dasharray: 0 0 4.07 4.07;
      }
    </style>
  </defs>
  <g id="c" data-name="Layer 1">
    <g>
      <polyline class="d" points="217.82 91.08 219.64 91.89 218.08 93.15"/>
      <line class="i" x1="214.93" y1="95.69" x2="109.13" y2="181"/>
      <polyline class="d" points="107.55 182.28 106 183.53 104.44 182.27"/>
      <line class="g" x1="101.39" y1="179.79" x2="5.18" y2="101.64"/>
      <polyline class="d" points="3.65 100.4 2.1 99.13 3.91 98.28"/>
      <line class="j" x1="7.46" y1="96.6" x2="112.16" y2="47.07"/>
      <polyline class="d" points="113.94 46.23 115.75 45.38 117.57 46.19"/>
      <line class="p" x1="121.28" y1="47.86" x2="215.96" y2="90.24"/>
    </g>
    <g>
      <polyline class="d" points="218.63 71.62 220.48 72.4 218.88 73.59"/>
      <line class="e" x1="215.7" y1="75.98" x2="109.19" y2="155.79"/>
      <polyline class="d" points="107.6 156.99 106 158.19 104.39 156.99"/>
      <line class="m" x1="101.12" y1="154.56" x2="4.51" y2="82.88"/>
      <polyline class="d" points="2.87 81.66 1.27 80.47 3.1 79.68"/>
      <line class="f" x1="6.77" y1="78.08" x2="115.14" y2="31.09"/>
      <polyline class="d" points="116.97 30.3 118.81 29.5 120.65 30.28"/>
      <line class="n" x1="124.28" y1="31.81" x2="216.82" y2="70.85"/>
    </g>
    <g>
      <polyline class="d" points="218.61 55.53 220.48 56.24 218.83 57.37"/>
      <line class="o" x1="215.47" y1="59.67" x2="109.61" y2="132.23"/>
      <polyline class="d" points="107.93 133.38 106.28 134.51 104.63 133.37"/>
      <line class="h" x1="101.35" y1="131.11" x2="4.55" y2="64.36"/>
      <polyline class="d" points="2.91 63.22 1.27 62.09 3.13 61.36"/>
      <polyline class="l" points="6.9 59.87 116.58 16.69 216.71 54.81"/>
    </g>
    <polygon class="k" points="219.92 37.86 105.58 107.84 1.13 42.87 114.35 .53 219.92 37.86"/>
  </g>
</svg>