<?xml version="1.0" encoding="UTF-8"?>
<svg id="b" data-name="Layer 2" xmlns="http://www.w3.org/2000/svg" viewBox="0 0 198.5 99.5">
  <defs>
    <style>
      .d {
        stroke: #414042;
      }

      .d, .e, .f, .g {
        fill: none;
        stroke-miterlimit: 10;
      }

      .e, .f, .g {
        stroke: #be1e2d;
      }

      .f {
        stroke-dasharray: 0 0 6 6;
      }

      .h {
        font-family: MyriadPro-Regular, 'Myriad Pro';
        font-size: 12px;
      }

      .h, .i {
        fill: #be1e2d;
      }

      .j {
        letter-spacing: 0em;
      }

      .g {
        stroke-dasharray: 0 0 7 7;
      }

      .i {
        stroke-width: 0px;
      }
    </style>
  </defs>
  <g id="c" data-name="Layer 1">
    <g>
      <line class="e" x1="144.5" y1="72.5" x2="144.5" y2="75.5"/>
      <line class="g" x1="144.5" y1="82.5" x2="144.5" y2="93"/>
      <line class="e" x1="144.5" y1="96.5" x2="144.5" y2="99.5"/>
    </g>
    <g>
      <line class="e" x1="144.5" y1="72.5" x2="147.5" y2="72.5"/>
      <line class="f" x1="153.5" y1="72.5" x2="174.5" y2="72.5"/>
      <line class="e" x1="177.5" y1="72.5" x2="180.5" y2="72.5"/>
    </g>
    <g>
      <line class="e" x1="144.5" y1=".5" x2="147.5" y2=".5"/>
      <line class="f" x1="153.5" y1=".5" x2="174.5" y2=".5"/>
      <line class="e" x1="177.5" y1=".5" x2="180.5" y2=".5"/>
    </g>
    <g>
      <line class="e" x1=".5" y1="72.5" x2=".5" y2="75.5"/>
      <line class="g" x1=".5" y1="82.5" x2=".5" y2="93"/>
      <line class="e" x1=".5" y1="96.5" x2=".5" y2="99.5"/>
    </g>
    <rect class="d" x=".5" y=".74" width="144" height="72"/>
    <text class="h" transform="translate(57.98 93.26)"><tspan x="0" y="0">width</tspan></text>
    <text class="h" transform="translate(155.11 40.76)"><tspan x="0" y="0">heig</tspan><tspan class="j" x="22.19" y="0">h</tspan><tspan x="28.8" y="0">t</tspan></text>
    <g>
      <line class="e" x1="45.5" y1="90.74" x2="9.36" y2="90.74"/>
      <polygon class="i" points="11.34 87.84 .5 90.74 11.34 93.65 11.34 87.84"/>
    </g>
    <g>
      <line class="e" x1="99.5" y1="90.74" x2="135.64" y2="90.74"/>
      <polygon class="i" points="133.66 93.65 144.5 90.74 133.66 87.84 133.66 93.65"/>
    </g>
    <g>
      <line class="e" x1="171.29" y1="25.85" x2="171.43" y2="9.36"/>
      <polygon class="i" points="174.32 11.36 171.5 .5 168.51 11.32 174.32 11.36"/>
    </g>
    <g>
      <line class="e" x1="171.8" y1="48.79" x2="171.6" y2="63.89"/>
      <polygon class="i" points="168.72 61.87 171.48 72.74 174.53 61.94 168.72 61.87"/>
    </g>
  </g>
</svg>