<?xml version="1.0" encoding="UTF-8"?>
<svg id="b" data-name="Layer 2" xmlns="http://www.w3.org/2000/svg" viewBox="0 0 225.5 73">
  <defs>
    <style>
      .d {
        stroke: #414042;
      }

      .d, .e, .f, .g, .h, .i {
        fill: none;
        stroke-miterlimit: 10;
      }

      .e, .f {
        stroke: #be1e2d;
      }

      .f, .h {
        stroke-dasharray: 0 0 6 6;
      }

      .j {
        fill: #a7a9ac;
      }

      .j, .k, .l {
        stroke-width: 0px;
      }

      .m {
        font-family: MyriadPro-Regular, 'Myriad Pro';
        font-size: 12px;
      }

      .m, .k {
        fill: #be1e2d;
      }

      .g {
        stroke: #1c75bc;
      }

      .h, .i {
        stroke: #a7a9ac;
      }

      .n {
        letter-spacing: 0em;
      }

      .l {
        fill: #1c75bc;
      }
    </style>
  </defs>
  <g id="c" data-name="Layer 1">
    <rect class="d" x=".5" y=".5" width="144" height="72"/>
    <g>
      <line class="e" x1=".5" y1="33.09" x2="3.5" y2="33.09"/>
      <line class="f" x1="9.5" y1="33.09" x2="138.5" y2="33.09"/>
      <line class="e" x1="141.5" y1="33.09" x2="144.5" y2="33.09"/>
    </g>
    <g>
      <line class="g" x1="90.5" y1="63.64" x2="90.5" y2="45.36"/>
      <polygon class="l" points="93.41 61.66 90.5 72.5 87.59 61.66 93.41 61.66"/>
      <polygon class="l" points="93.41 47.34 90.5 36.5 87.59 47.34 93.41 47.34"/>
    </g>
    <g>
      <line class="i" x1="45.5" y1=".5" x2="45.5" y2="3.5"/>
      <line class="h" x1="45.5" y1="9.5" x2="45.5" y2="66.5"/>
      <line class="i" x1="45.5" y1="69.5" x2="45.5" y2="72.5"/>
    </g>
    <g>
      <line class="i" x1="135.64" y1="18.5" x2="54.36" y2="18.5"/>
      <polygon class="j" points="133.66 15.59 144.5 18.5 133.66 21.41 133.66 15.59"/>
      <polygon class="j" points="56.34 15.59 45.5 18.5 56.34 21.41 56.34 15.59"/>
    </g>
    <text class="m" transform="translate(154.2 36.02)"><tspan x="0" y="0">heig</tspan><tspan class="n" x="22.19" y="0">h</tspan><tspan x="28.8" y="0">t (min)</tspan></text>
    <g>
      <path class="e" d="M170.5,42.5c.45,1.18-19.16,19.99-43.89-.25"/>
      <polygon class="k" points="130.09 41.41 120.17 36.17 126.14 45.67 130.09 41.41"/>
    </g>
  </g>
</svg>